<?xml version="1.0" encoding="UTF-8" standalone="no"?>
<!-- Created with Inkscape (http://www.inkscape.org/) -->

<svg
   xmlns:dc="http://purl.org/dc/elements/1.1/"
   xmlns:cc="http://creativecommons.org/ns#"
   xmlns:rdf="http://www.w3.org/1999/02/22-rdf-syntax-ns#"
   xmlns:svg="http://www.w3.org/2000/svg"
   xmlns="http://www.w3.org/2000/svg"
   xmlns:sodipodi="http://sodipodi.sourceforge.net/DTD/sodipodi-0.dtd"
   xmlns:inkscape="http://www.inkscape.org/namespaces/inkscape"
   version="1.0"
   width="297mm"
   height="210mm"
   id="svg2"
   inkscape:version="0.91 r13725"
   sodipodi:docname="rpi-uclm.svg">
  <metadata
     id="metadata12">
    <rdf:RDF>
      <cc:Work
         rdf:about="">
        <dc:format>image/svg+xml</dc:format>
        <dc:type
           rdf:resource="http://purl.org/dc/dcmitype/StillImage" />
        <dc:title></dc:title>
      </cc:Work>
    </rdf:RDF>
  </metadata>
  <sodipodi:namedview
     pagecolor="#ffffff"
     bordercolor="#666666"
     borderopacity="1"
     objecttolerance="10"
     gridtolerance="10"
     guidetolerance="10"
     inkscape:pageopacity="0"
     inkscape:pageshadow="2"
     inkscape:window-width="1600"
     inkscape:window-height="844"
     id="namedview10"
     showgrid="false"
     inkscape:zoom="0.53636363"
     inkscape:cx="237.43544"
     inkscape:cy="407.51648"
     inkscape:window-x="0"
     inkscape:window-y="27"
     inkscape:window-maximized="1"
     inkscape:current-layer="svg2"
     units="mm" />
  <defs
     id="defs5">
    <clipPath
       clipPathUnits="userSpaceOnUse"
       id="clipPath3661">
      <rect
         style="fill:#ffff00;stroke:none;stroke-width:0.87900001;stroke-miterlimit:4;stroke-dasharray:none"
         id="rect3663"
         width="325.0076"
         height="882.42169"
         x="-41.262375"
         y="-89.832672" />
    </clipPath>
  </defs>
  <g
     id="g3645"
     transform="matrix(1.4474576,0,0,1.4474576,-4.4745763,430.12839)">
    <path
       id="path3565"
       d="m 110,45.40625 c -10.714984,2.657628 -22.364623,9.64881 -31.884766,19.361328 0.15537,0.01336 0.297258,0.01949 0.466797,0.04102 1.72352,-1.527446 3.650842,-1.267863 5.638672,-0.517578 0.809897,-0.625481 1.524246,-0.865746 2.1875,-0.886719 l 0.002,0 0.002,0 c 1.266421,-0.03683 2.343906,0.715872 3.513672,1.078125 2.859685,-0.914021 3.509917,0.337837 4.914063,0.847656 3.116653,-0.644595 4.064625,0.758995 5.560542,2.240234 l 1.73828,-0.0332 c 1.19146,0.687242 2.21425,1.561454 3.11328,2.517579 C 106.82914,69.861624 108.41359,69.75 110,69.75 c 21.51282,0 42.75,18.09819 42.75,40.25 l 0,57.25 9.5,-9.5 0,-47.75 c 0,-15.26667 -6.96991,-30.092318 -17.1875,-41.8125 C 135.04379,56.695451 121.9377,48.367147 110,45.40625 Z M 65.064453,82.447266 C 60.496957,91.020026 57.75,100.42214 57.75,110 l 0,47.75 9.5,9.5 0,-4.0957 c -0.259229,-0.92954 -0.481931,-1.89045 -0.617188,-2.91797 -0.99821,-2.81462 -2.118644,-5.35783 -2.787109,-8.89844 C 53.697101,140.12104 60.049644,126.35525 67.25,121.9043 L 67.25,110 c 0,-5.94167 1.545103,-11.584445 4.203125,-16.669922 -0.04021,-0.151586 -0.07967,-0.303296 -0.111328,-0.457031 -0.862127,-0.571656 -3.749589,-2.174483 -3.447266,-4.933594 -1.616493,-1.108639 -2.517078,-2.532582 -2.058593,-4.548828 -0.299768,-0.324904 -0.547501,-0.636878 -0.771485,-0.943359 z"
       style="opacity:1;fill:#808080;fill-opacity:1;fill-rule:evenodd;stroke:none;stroke-width:1px;stroke-linecap:butt;stroke-linejoin:miter;stroke-opacity:1"
       inkscape:connector-curvature="0" />
    <path
       id="path3563"
       d="M 110,76.25 C 92.3756,76.25 73.75,92.16535 73.75,110 l 0,63.75 9.5,9.5 0,-33.25 c 0,-4.78004 2.84318,-9.30052 7.21875,-11.78125 C 86.09106,133.53982 83.25,127.09532 83.25,119.9375 c 0,-7.63502 3.24474,-14.45187 8.125,-19.1875 4.88027,-4.73565 11.43035,-7.5625 18.625,-7.5625 7.19465,0 13.74473,2.82685 18.625,7.5625 4.88026,4.73563 8.125,11.55247 8.125,19.1875 0,7.15783 -2.84106,13.60232 -7.21875,18.28125 4.37557,2.48036 7.21875,7.00012 7.21875,11.78125 l 0,33.25 9.5,-9.5 0,-63.75 C 146.25,92.15181 127.76142,76.25 110,76.25 Z"
       style="opacity:1;fill:#808080;fill-opacity:1;fill-rule:evenodd;stroke:none;stroke-width:1px;stroke-linecap:butt;stroke-linejoin:miter;stroke-opacity:1"
       inkscape:connector-curvature="0" />
    <path
       id="path2410"
       d="m 110,99.6875 c -5.96179,0 -11.52862,2.64411 -15.0625,6.75 -3.51845,4.08797 -5.1875,8.36846 -5.1875,13.5 0,5.13153 1.61398,9.3479 5.1875,13.5 0.90144,1.04738 1.93071,1.9807 3.0625,2.8125 l 0,6.5 c -4.6715,0 -8.25,4.41503 -8.25,7.25 l 0,39.75 20.25,20.25 20.25,-20.25 0,-39.75 c 0,-2.83333 -3.58333,-7.25 -8.25,-7.25 l 0,-6.5 c 0.007,-0.005 0.0242,0.005 0.0312,0 1.13061,-0.83145 2.15278,-1.78387 3.03125,-2.8125 3.47382,-4.06757 5.1875,-8.36847 5.1875,-13.5 0,-5.13153 -1.56483,-9.30089 -5.1875,-13.5 -3.63606,-4.21461 -9.10071,-6.75 -15.0625,-6.75 z"
       style="opacity:1;fill:#808080;fill-opacity:1;fill-rule:evenodd;stroke:none;stroke-width:1px;stroke-linecap:butt;stroke-linejoin:miter;stroke-opacity:1"
       inkscape:connector-curvature="0" />
    <path
       id="path3342"
       d="m 86.408203,63.404297 c -0.663254,0.02097 -1.377603,0.261238 -2.1875,0.886719 -1.98783,-0.750285 -3.915152,-1.009868 -5.638672,0.517578 -0.169539,-0.02152 -0.311427,-0.02766 -0.466797,-0.04102 -0.0014,-1.21e-4 -0.0025,1.2e-4 -0.0039,0 -1.424739,-0.121932 -2.277718,0.08476 -2.867187,0.44336 -0.114331,0.06955 -0.219702,0.144983 -0.316407,0.224609 -0.200977,0.168107 -0.37146,0.353228 -0.527343,0.546875 -0.146059,-0.003 -0.492588,-0.04052 -0.957032,-0.05664 -1.393329,-0.04837 -3.849654,0.101917 -5.152343,2.003907 -0.266826,-0.0309 -0.521682,-0.04757 -0.765625,-0.05273 -0.178523,-0.0038 -0.344903,0.0047 -0.511719,0.01367 -0.06113,0.0033 -0.127898,9.33e-4 -0.1875,0.0059 -2.754197,0.227642 -3.798134,2.215046 -3.150391,4.34375 0.01362,0.04477 0.03378,0.08988 0.04883,0.134766 0.04171,0.124423 0.08376,0.248202 0.136719,0.373047 0.07207,0.169885 0.154109,0.340604 0.248047,0.509765 -0.891477,1.350811 -1.815268,2.68462 0.269531,5.259766 -0.08394,0.163246 -0.148312,0.329395 -0.201172,0.496094 -0.02186,0.0697 -0.03445,0.140547 -0.05078,0.210937 -0.02223,0.09405 -0.04225,0.187847 -0.05469,0.283203 -0.01133,0.09027 -0.01707,0.181904 -0.01953,0.273438 -0.0025,0.07822 -4.5e-5,0.157127 0.0039,0.236328 0.0055,0.09945 0.01162,0.199682 0.02734,0.300781 0.0094,0.06265 0.0257,0.126143 0.03906,0.189453 0.132398,0.612871 0.44197,1.255559 0.945312,1.94336 0,0 0,0.002 0,0.002 0.22305,0.304669 0.46969,0.614633 0.767579,0.9375 -0.458485,2.016246 0.4421,3.440189 2.058593,4.548828 -0.302323,2.759111 2.585139,4.361938 3.447266,4.933594 0.03163,0.15362 0.07118,0.305579 0.111328,0.457031 8.95e-4,0.0034 0.003,0.0064 0.0039,0.0098 0.01596,0.05978 0.03697,0.118397 0.05469,0.177734 0.02195,0.07039 0.04248,0.141101 0.06641,0.210938 0.0025,0.0072 0.0053,0.01429 0.0078,0.02148 0.01877,0.05425 0.03773,0.108362 0.05859,0.162109 0.04241,0.109432 0.09273,0.217202 0.144531,0.324219 0.03662,0.07547 0.07519,0.150528 0.117188,0.22461 0.057,0.100785 0.121292,0.19897 0.189453,0.296874 0.05264,0.07544 0.10988,0.149136 0.169922,0.222657 0.02532,0.03109 0.05531,0.06107 0.08203,0.0918 0.04725,0.05555 0.09206,0.112299 0.144532,0.166015 0.0022,0.0022 0.0056,0.0036 0.0078,0.0059 0.08417,0.08511 0.178675,0.168149 0.275391,0.25 0.0799,0.06781 0.158647,0.135825 0.248047,0.201171 0.125881,0.09179 0.269441,0.179185 0.416015,0.265626 0.0042,0.0025 0.0075,0.0053 0.01172,0.0078 0.08629,0.05088 0.165936,0.103421 0.259766,0.152344 0.0017,8.81e-4 0.0042,0.0011 0.0059,0.002 0.174925,0.0906 0.375661,0.174357 0.578125,0.257812 0.10187,0.04204 0.191415,0.08686 0.300781,0.126953 0.322671,0.118185 0.673511,0.230152 1.066406,0.330079 0.05877,0.25887 0.139854,0.484325 0.230469,0.699218 0.0015,0.0036 0.0024,0.0081 0.0039,0.01172 0.01994,0.04617 0.03726,0.09637 0.05859,0.140625 4.03e-4,8.36e-4 0.0015,0.0012 0.002,0.002 0.0024,0.005 0.0054,0.0087 0.0078,0.01367 7.42e-4,0.0012 0.0013,0.0026 0.002,0.0039 0.120281,0.245352 0.260244,0.464381 0.417969,0.658204 0.883402,1.086106 2.317071,1.412998 3.722656,1.781256 -2.042819,1.16223 -3.988705,2.44804 -5.691406,4.03906 -0.0047,0.004 -0.009,0.009 -0.01367,0.0137 -0.408945,0.38285 -0.801285,0.78762 -1.179688,1.20899 -0.004,0.004 -0.0077,0.009 -0.01172,0.0137 -0.08607,0.0961 -0.171516,0.19277 -0.25586,0.29101 -0.04146,0.0483 -0.08201,0.0977 -0.123047,0.14649 -0.09252,0.1078 -0.185982,0.21453 -0.27539,0.32617 -0.0037,0.005 -0.008,0.009 -0.01172,0.0137 -0.210099,0.26302 -0.413874,0.53355 -0.611328,0.8125 -0.0019,0.003 -0.004,0.005 -0.0059,0.008 -0.09361,0.13232 -0.180851,0.27213 -0.271484,0.40821 -0.140438,0.21105 -0.277176,0.42604 -0.410156,0.64648 -0.0012,0.002 -0.0027,0.004 -0.0039,0.006 -0.08516,0.14115 -0.169962,0.28259 -0.251954,0.42774 -0.196819,0.34888 -0.386838,0.70698 -0.564453,1.08007 -0.04126,0.0865 -0.07896,0.17774 -0.11914,0.26563 -0.150069,0.32875 -0.29126,0.66728 -0.425782,1.01562 -0.04784,0.12367 -0.09677,0.24682 -0.142578,0.37305 -0.148955,0.41118 -0.2912,0.83419 -0.417969,1.27344 -0.0016,0.006 -0.0023,0.0119 -0.0039,0.0176 -9.89e-4,0.003 -0.0029,0.006 -0.0039,0.01 -0.03152,0.1098 -0.05782,0.22628 -0.08789,0.33789 -0.0031,0.0114 -0.0048,0.0238 -0.0078,0.0352 -0.0982,0.36739 -0.189332,0.74321 -0.271485,1.13086 -0.0011,0.005 -0.0028,0.0102 -0.0039,0.0156 -0.0293,0.1385 -0.05875,0.27682 -0.08594,0.41797 -0.0012,0.006 -0.0027,0.0132 -0.0039,0.0195 -0.09777,0.5102 -0.184681,1.03192 -0.253906,1.57813 -0.0046,0.0362 -0.0072,0.0749 -0.01172,0.11133 -0.06387,0.52083 -0.111675,1.06408 -0.148438,1.61914 -4.88e-4,0.007 -0.0015,0.0141 -0.002,0.0215 -0.0099,0.14984 -0.01757,0.30073 -0.02539,0.45313 -0.03109,0.60668 -0.05283,1.22459 -0.05078,1.87304 l -0.929687,1.62305 c -0.06052,0.036 -0.119281,0.0857 -0.179688,0.12305 -7.200294,4.45107 -13.552815,18.21684 -3.404297,29.43359 0.668465,3.54061 1.788899,6.08382 2.787109,8.89844 0.135245,1.02743 0.357994,1.98852 0.617188,2.91797 0.0019,0.007 0.004,0.0128 0.0059,0.0195 0.148705,0.53119 0.31913,1.04326 0.501953,1.54297 0.05958,0.16281 0.126544,0.31706 0.189454,0.47656 0.132551,0.33615 0.267718,0.67068 0.414062,0.99219 0.08507,0.18677 0.17626,0.36697 0.265625,0.54883 0.134839,0.27452 0.272145,0.54519 0.416016,0.80859 0.104568,0.19136 0.211389,0.37893 0.320312,0.56445 0.138091,0.23529 0.279374,0.46545 0.423828,0.69141 0.125783,0.19667 0.252712,0.39239 0.382813,0.58203 0.132724,0.19352 0.269525,0.38016 0.40625,0.56641 0.144392,0.19662 0.287268,0.39541 0.435547,0.58398 0.143847,0.18297 0.292488,0.35582 0.439453,0.53125 0.139978,0.16705 0.277595,0.33973 0.419922,0.5 0.206219,0.23225 0.415031,0.45184 0.625,0.66992 0.0764,0.0794 0.151746,0.1647 0.228515,0.24219 0.01926,0.0194 0.03736,0.0412 0.05664,0.0605 0.0038,0.004 0.0078,0.008 0.01172,0.0117 0.306375,0.3066 0.616555,0.5958 0.925781,0.87304 0.01073,0.01 0.02051,0.0217 0.03125,0.0312 2.747153,2.45391 5.494145,3.77428 6.689453,4.06641 3.765864,2.80761 7.77755,5.47184 13.205078,7.33789 5.116413,5.16485 10.659146,7.13215 16.232416,7.12891 0.0817,-5e-5 0.16437,9e-4 0.2461,0 5.57327,0.003 11.11582,-1.96388 16.23242,-7.12891 5.42734,-1.86605 9.43922,-4.53028 13.20508,-7.33789 1.19545,-0.29216 3.94198,-1.61389 6.68945,-4.06836 l 0,-30.88086 0,-17.99609 0,-14.57227 c 0,-0.51139 -0.0189,-1.02143 -0.0488,-1.5293 -0.0216,-0.35202 -0.0559,-0.70273 -0.0918,-1.05273 -0.0136,-0.13677 -0.0253,-0.27371 -0.041,-0.41016 -0.0544,-0.45974 -0.11781,-0.91916 -0.19531,-1.375 -4.4e-4,-0.003 -0.002,-0.005 -0.002,-0.008 -2.1e-4,-0.001 2.2e-4,-0.003 0,-0.004 -0.0816,-0.47856 -0.17574,-0.95387 -0.28125,-1.42773 -1.70435,-1.59417 -3.65163,-2.88079 -5.69726,-4.04492 1.41182,-0.369814 2.85202,-0.699061 3.73437,-1.796882 -2.4e-4,-5.28e-4 2.4e-4,-0.0014 0,-0.002 -0.34958,-0.769704 -0.73166,-1.528171 -1.14257,-2.273437 -0.40798,-0.739931 -0.84612,-1.46675 -1.31055,-2.179688 -0.004,-0.0056 -0.006,-0.01199 -0.01,-0.01758 -0.007,-0.01131 -0.016,-0.0219 -0.0234,-0.0332 -0.46201,-0.706582 -0.94931,-1.399057 -1.46289,-2.076172 -0.52179,-0.68795 -1.06966,-1.359077 -1.64062,-2.013672 -1.13741,-1.304009 -2.36748,-2.539304 -3.67578,-3.693359 -0.005,-0.0046 -0.0104,-0.0091 -0.0156,-0.01367 -0.008,-0.007 -0.0174,-0.01249 -0.0254,-0.01953 -1.30149,-1.145069 -2.67906,-2.211799 -4.11719,-3.185547 -0.006,-0.0042 -0.0114,-0.0095 -0.0176,-0.01367 -0.008,-0.0056 -0.0172,-0.01006 -0.0254,-0.01563 -1.44609,-0.97648 -2.95226,-1.860548 -4.50391,-2.640625 -1.55473,-0.781625 -3.15476,-1.4585 -4.7832,-2.019531 -0.006,-0.0021 -0.0115,-0.0057 -0.0176,-0.0078 -0.007,-0.0024 -0.0144,-0.0034 -0.0215,-0.0059 -1.6279,-0.558822 -3.2841,-1.001491 -4.95312,-1.316406 -1.67624,-0.316277 -3.36567,-0.504169 -5.05078,-0.550781 -0.36197,0.872937 -0.64301,1.679186 -0.83399,2.333984 -0.19095,-0.65455 -0.47272,-1.461562 -0.83398,-2.333984 -0.003,9.5e-5 -0.007,-9.4e-5 -0.01,0 -0.80525,-1.953165 -2.06314,-4.264829 -3.90039,-6.21875 0.007,-7.96e-4 0.013,-0.0012 0.0195,-0.002 -0.90157,-0.960035 -1.94023,-1.827738 -3.13281,-2.515625 l -1.73828,0.0332 C 98.90447,66.089073 97.956497,64.685483 94.839844,65.330078 93.435698,64.820259 92.785466,63.568401 89.925781,64.482422 88.756015,64.120169 87.67853,63.367465 86.412109,63.404297 l -0.002,0 -0.002,0 z m 46.998047,0 c -1.1907,0.03162 -2.21893,0.732776 -3.33398,1.078125 -2.85785,-0.914021 -3.51188,0.337837 -4.91602,0.847656 -3.11665,-0.644613 -4.0645,0.758996 -5.55859,2.240234 l -1.73828,-0.0332 c -1.19035,0.686591 -2.228,1.553995 -3.12891,2.511719 0.005,5.53e-4 0.009,0.0014 0.0137,0.002 0.87347,0.106021 1.74343,0.240209 2.60938,0.402344 1.74176,0.326118 3.46435,0.76325 5.1582,1.304687 0.84656,0.270602 1.6854,0.567216 2.51562,0.888672 2.48116,0.96069 4.88072,2.143305 7.16407,3.523438 0.009,0.0054 0.0184,0.01019 0.0273,0.01563 0.007,0.0044 0.0142,0.0093 0.0215,0.01367 2.26994,1.375827 4.41918,2.946373 6.41602,4.685547 0.0119,0.01034 0.0252,0.01894 0.0371,0.0293 0.0114,0.01 0.0218,0.02124 0.0332,0.03125 2.00005,1.749117 3.84134,3.665893 5.48828,5.728516 1.65663,2.074755 3.11313,4.293448 4.33399,6.632813 0.0378,-0.144543 0.0773,-0.289057 0.10742,-0.435547 0.86227,-0.57153 3.74957,-2.174483 3.44727,-4.933594 1.61646,-1.108747 2.51709,-2.532761 2.05859,-4.548828 0.30049,-0.325692 0.54909,-0.638134 0.77344,-0.945313 -2.71261,-5.090715 -6.06642,-9.889431 -9.87305,-14.255859 -1.02616,-1.17707 -2.09137,-2.3116 -3.17773,-3.419922 -0.15596,0.0134 -0.29851,0.0194 -0.46875,0.04102 -1.72352,-1.527446 -3.65085,-1.267881 -5.63868,-0.517578 -0.88516,-0.68367 -1.65667,-0.90569 -2.37109,-0.886719 z m 19.76758,4.492187 c 1.09326,1.412414 2.14371,2.859003 3.14844,4.341797 0.64642,-2.128032 -0.39452,-4.114184 -3.14844,-4.341797 z m -0.42383,54.005856 0,6.32422 0,19.06836 0,15.85742 c 0.25895,-0.92891 0.48203,-1.88925 0.61719,-2.91601 0.99812,-2.81462 2.11863,-5.35783 2.78711,-8.89844 10.1478,-11.21704 3.79569,-24.98368 -3.4043,-29.43555 z"
       style="fill:#000000"
       inkscape:connector-curvature="0" />
    <path
       style="fill:#75a928"
       inkscape:connector-curvature="0"
       id="path3344"
       d="m 77.05205,75.333754 c 12.471751,6.293426 19.722282,11.384434 23.69427,15.72036 -2.034083,7.979829 -12.645754,8.343985 -16.525968,8.120138 0.794471,-0.361947 1.457356,-0.795468 1.692408,-1.461604 -0.973633,-0.677256 -4.425904,-0.07136 -6.836079,-1.396658 0.925837,-0.187738 1.358901,-0.370624 1.791966,-1.039365 -2.277103,-0.710833 -4.729861,-1.323396 -6.172368,-2.50095 0.778484,0.0094 1.505318,0.170455 2.521956,-0.519682 -2.039591,-1.075799 -4.215925,-1.928396 -5.906773,-3.57276 1.054523,-0.02527 2.191385,-0.0102 2.521956,-0.389758 -1.866688,-1.131939 -3.441717,-2.390822 -4.745462,-3.767683 1.475729,0.174357 2.098876,0.02421 2.455695,-0.227369 -1.411084,-1.414624 -3.197047,-2.609101 -4.048529,-4.352275 1.095711,0.369637 2.098143,0.511131 2.820773,-0.03248 -0.479502,-1.058785 -2.533886,-1.683277 -3.716673,-4.15753 1.153492,0.109477 2.376953,0.246322 2.621623,0 -0.535411,-2.134997 -1.454071,-3.335259 -2.35511,-4.578817 2.468726,-0.03593 6.209077,0.0093 6.039662,-0.194924 L 71.378916,69.45583 c 2.41146,-0.635469 4.878902,0.102072 6.670151,0.649608 0.804291,-0.621187 -0.01424,-1.406684 -0.99553,-2.208655 2.049318,0.267791 3.901139,0.728924 5.574917,1.364178 0.894322,-0.790348 -0.580729,-1.580714 -1.2942,-2.371061 3.166027,0.587932 4.5074,1.413995 5.840512,2.241171 0.96719,-0.907391 0.05537,-1.678552 -0.597322,-2.468432 2.387232,0.865388 3.616823,1.982651 4.91139,3.085541 0.438901,-0.579759 1.115039,-1.004692 0.29867,-2.403578 1.694923,0.956239 2.971466,2.083077 3.915823,3.345498 1.048686,-0.653559 0.62478,-1.547351 0.630507,-2.37106 1.761441,1.402461 2.879325,2.894929 4.247676,4.352274 0.27564,-0.196432 0.51699,-0.86264 0.73007,-1.916359 4.20234,3.990454 10.14031,14.041323 1.52648,18.026386 C 95.507132,82.86357 86.75187,78.562137 77.049499,75.335389 Z" />
    <path
       id="path3346"
       d="m 133.70508,66.662109 c -2.38724,0.865389 -3.61755,1.983048 -4.91211,3.085938 -0.43891,-0.579758 -1.1152,-1.00541 -0.29883,-2.404297 -1.69493,0.956239 -2.97165,2.083281 -3.91602,3.345703 -1.04868,-0.65356 -0.62513,-1.547384 -0.63085,-2.371094 -1.20769,0.961557 -2.11509,1.964858 -3.00586,2.970703 0.63936,0.178198 1.27481,0.370692 1.90625,0.578126 0.006,0.0019 0.0117,0.0039 0.0176,0.0059 0.006,0.0019 0.0117,0.0039 0.0176,0.0059 0.63166,0.208096 1.25838,0.431434 1.88086,0.667969 0.62794,0.238606 1.24984,0.491102 1.86719,0.757813 0.61735,0.26671 1.22847,0.545867 1.83398,0.839843 0.60548,0.293959 1.20449,0.601493 1.79688,0.921875 0.59241,0.320395 1.17779,0.654019 1.75586,1 0.57799,0.345936 1.14853,0.703542 1.71094,1.074219 0.56251,0.370746 1.11644,0.75378 1.6621,1.148437 2.53405,-1.071498 5.14196,-2.058391 7.83204,-2.953124 -2.51549,1.269671 -4.76454,2.478944 -6.8711,3.654296 0.51515,0.393086 1.02205,0.796789 1.51953,1.210938 0.002,0.0021 0.005,0.0038 0.008,0.0059 0.29372,0.244434 0.57594,0.500434 0.86328,0.751953 0.19709,0.172719 0.39978,0.339617 0.59375,0.515625 0.008,0.0071 0.0156,0.01436 0.0234,0.02148 0.45464,0.412583 0.89901,0.835511 1.33593,1.265625 0.0154,0.01519 0.0315,0.02971 0.0469,0.04492 6.5e-4,6.46e-4 0.001,0.0013 0.002,0.002 0.45872,0.452926 0.90575,0.917115 1.34375,1.388672 0.4336,0.466815 0.85536,0.943387 1.26758,1.427734 0.005,0.006 0.0106,0.01161 0.0156,0.01758 0.001,0.0014 0.003,0.0025 0.004,0.0039 0.41572,0.489121 0.81812,0.987912 1.21094,1.494141 0.38168,0.491889 0.75034,0.99265 1.10937,1.5 0.0113,0.01594 0.0239,0.03092 0.0352,0.04687 0.005,0.0065 0.009,0.01304 0.0137,0.01953 0.35334,0.501398 0.6932,1.011573 1.02344,1.527344 0.0106,0.01657 0.0226,0.03225 0.0332,0.04883 0.76782,-0.459693 1.5104,-0.960117 2.16797,-1.599609 -1.05452,-0.02527 -2.1909,-0.01107 -2.52148,-0.390625 1.86669,-1.131939 3.44234,-2.390717 4.74609,-3.767578 -1.47573,0.174357 -2.10021,0.02502 -2.45703,-0.226563 1.41109,-1.414624 3.19735,-2.610341 4.04883,-4.353516 -1.09571,0.369637 -2.09769,0.512362 -2.82032,-0.03125 0.31071,-0.686069 1.28236,-1.197631 2.25,-2.140624 -1.48382,-2.34664 -3.10518,-4.612169 -4.83593,-6.789063 0,0 -0.002,-0.002 -0.002,-0.002 -0.46156,-0.5805 -0.93294,-1.15169 -1.41015,-1.71875 -1.37928,0.134027 -2.6761,0.51831 -3.73438,0.841797 -0.80429,-0.621186 0.0149,-1.407014 0.9961,-2.208985 -2.04932,0.267791 -3.90241,0.728029 -5.57618,1.363282 -0.89433,-0.790347 0.58145,-1.580746 1.29493,-2.371094 -3.16603,0.587933 -4.50673,1.415011 -5.83985,2.242187 -0.96719,-0.907392 -0.0551,-1.678869 0.59766,-2.46875 z m -14.73438,4.091797 c -0.009,0.009 -0.0198,0.02022 -0.0293,0.0293 0.0123,0.0028 0.0248,0.005 0.0371,0.0078 -0.003,-0.01345 -0.005,-0.02353 -0.008,-0.03711 z m -4.31836,5.857422 c -2.24342,4.395439 -2.82715,9.570761 2.79102,12.169922 3.34365,-2.701103 6.99791,-5.051967 10.89062,-7.130859 -3.71644,-2.235185 -7.76403,-3.870034 -11.90234,-4.722657 -0.5893,-0.121414 -1.18119,-0.227212 -1.77344,-0.316406 -0.002,-2.89e-4 -0.004,2.89e-4 -0.006,0 z m 15.39063,6.125 c -4.81416,3.074085 -8.22587,5.826817 -10.50781,8.31836 2.03409,7.979827 12.64518,8.342987 16.52539,8.11914 -0.79447,-0.361947 -1.45831,-0.794801 -1.69336,-1.460937 0.97363,-0.677256 4.42576,-0.07119 6.83593,-1.396485 -0.92583,-0.187738 -1.35795,-0.370321 -1.79101,-1.039062 0.73312,-0.228856 1.47512,-0.452976 2.20508,-0.683594 -0.71962,-1.163286 -1.51132,-2.291358 -2.36719,-3.376953 -0.41706,-0.52901 -0.85038,-1.046222 -1.29688,-1.554688 -0.028,-0.03189 -0.0559,-0.0639 -0.084,-0.0957 -0.43469,-0.491765 -0.88327,-0.974219 -1.34375,-1.445312 -0.009,-0.0096 -0.018,-0.01976 -0.0273,-0.0293 -0.006,-0.0062 -0.0134,-0.01134 -0.0195,-0.01758 -1.9464,-1.984625 -4.11234,-3.780199 -6.43555,-5.337891 z"
       style="fill:#75a928"
       inkscape:connector-curvature="0" />
    <path
       style="fill:#bc1142"
       inkscape:connector-curvature="0"
       id="path3348"
       d="m 125.24291,156.59186 a 14.938997,13.483213 0 1 1 -29.877581,0 14.938997,13.483213 0 1 1 29.877581,0 z" />
    <path
       style="fill:#bc1142"
       inkscape:connector-curvature="0"
       id="path3350"
       d="M 101.66007,118.07513 A 13.300684,15.587637 37.6688 1 1 84.228866,143.89348 13.300684,15.587637 37.6688 0 1 101.66007,118.07513 Z" />
    <path
       style="fill:#bc1142"
       inkscape:connector-curvature="0"
       id="path3352"
       d="m 118.36734,117.35652 a 15.587636,13.300683 52.3312 1 0 17.4312,25.81835 15.587636,13.300683 52.3312 0 0 -17.4312,-25.81835 z" />
    <path
       style="fill:#bc1142"
       inkscape:connector-curvature="0"
       id="path3354"
       d="m 70.723299,124.5648 c 6.683,-1.75342 2.256178,27.06113 -3.181445,24.6969 -5.981294,-4.70871 -7.907819,-18.49887 3.181445,-24.6969 z" />
    <path
       style="fill:#bc1142"
       inkscape:connector-curvature="0"
       id="path3358"
       d="m 125.2482,102.74773 c 11.53327,-1.90612 21.1301,4.80069 20.74282,17.04153 -0.37938,4.69272 -24.99196,-16.34286 -20.74282,-17.04153 z" />
    <path
       style="fill:#bc1142"
       inkscape:connector-curvature="0"
       id="path3360"
       d="m 93.382357,102.38842 c -11.534186,-1.90611 -21.130099,4.80213 -20.742812,17.04189 0.379395,4.69254 24.991958,-16.34304 20.742812,-17.04189 z" />
    <path
       style="fill:#bc1142"
       inkscape:connector-curvature="0"
       id="path3362"
       d="m 109.94944,99.533737 c -6.88362,-0.175248 -13.489893,5.000463 -13.505862,8.002463 -0.0192,3.64768 5.442392,7.38248 13.552672,7.47716 8.28225,0.0581 13.56716,-2.98942 13.59378,-6.75387 0.0302,-4.26497 -7.53265,-8.791685 -13.64077,-8.725932 z" />
    <path
       style="fill:#bc1142"
       inkscape:connector-curvature="0"
       id="path3364"
       d="m 110.36977,174.33408 c 6.00148,-0.25639 14.05449,1.8921 14.07027,4.74212 0.0996,2.76755 -7.30339,9.02056 -14.46839,8.89965 -7.42031,0.3133 -14.696542,-5.94939 -14.60128,-8.12014 -0.111058,-3.18273 9.03536,-5.66769 14.9994,-5.52163 z" />
    <path
       style="fill:#bc1142"
       inkscape:connector-curvature="0"
       id="path3366"
       d="m 87.673074,157.85498 c 3.926366,4.63 5.716245,12.76428 2.439579,15.16216 -3.099905,1.83048 -10.627956,1.07663 -15.978703,-6.44694 -3.6086,-6.31322 -3.143589,-12.73754 -0.609878,-14.6248 3.788904,-2.25904 9.643117,0.79224 14.149187,5.90958 z" />
    <path
       id="path3567"
       d="m 110,10 -100,100 41.25,41.25 0,-41.25 c 0,-13.663332 4.901201,-26.654079 12.425781,-37.759766 -0.647743,-2.128704 0.396194,-4.116108 3.150391,-4.34375 1.045582,-1.35081 2.119374,-2.677772 3.236328,-3.958984 11.03241,-12.654818 25.34403,-21.891892 39.21875,-25.09375 0.15374,-0.04271 0.31041,-0.07405 0.46875,-0.09375 0.32579,-0.01755 0.65237,0.01406 0.96875,0.09375 13.87472,3.201858 28.18634,12.438932 39.21875,25.09375 C 160.96991,76.592318 168.75,92.76667 168.75,110 l 0,41.25 L 210,110 110,10 Z"
       style="opacity:1;fill:#af0000;fill-opacity:1;fill-rule:evenodd;stroke:none;stroke-width:1px;stroke-linecap:butt;stroke-linejoin:miter;stroke-opacity:1"
       inkscape:connector-curvature="0" />
    <path
       id="path3617"
       d="m 143.32227,148.12695 c -3.5007,0.0893 -7.67295,3.33195 -11.64063,7.7168 l 0,0.002 c -4.62304,5.30013 -7.19674,14.9667 -3.82422,18.08008 3.22457,2.41885 11.88111,2.08056 18.27539,-6.60351 0.0425,-0.0533 0.0758,-0.11206 0.11719,-0.16602 l 0,-18.19336 c -0.90178,-0.58897 -1.88274,-0.8626 -2.92773,-0.83594 z"
       style="fill:#bc1142"
       inkscape:connector-curvature="0" />
    <path
       id="path3638"
       d="m 146.25,124.57227 c -2.47926,2.10903 -1.9188,11.47654 0,17.99609 l 0,-17.99609 z m 6.5,3.65429 0,19.06836 c 3.69143,-4.5563 4.81261,-13.00156 0,-19.06836 z"
       style="fill:#bc1142"
       inkscape:connector-curvature="0" />
  </g>
</svg>
