<?xml version="1.0" encoding="UTF-8" standalone="no"?>
<!-- Created with Inkscape (http://www.inkscape.org/) -->

<svg
   xmlns:dc="http://purl.org/dc/elements/1.1/"
   xmlns:cc="http://creativecommons.org/ns#"
   xmlns:rdf="http://www.w3.org/1999/02/22-rdf-syntax-ns#"
   xmlns:svg="http://www.w3.org/2000/svg"
   xmlns="http://www.w3.org/2000/svg"
   xmlns:sodipodi="http://sodipodi.sourceforge.net/DTD/sodipodi-0.dtd"
   xmlns:inkscape="http://www.inkscape.org/namespaces/inkscape"
   version="1.0"
   width="220"
   height="220"
   id="svg2"
   inkscape:version="0.91 r13725"
   sodipodi:docname="rpi-uclm.svg">
  <metadata
     id="metadata12">
    <rdf:RDF>
      <cc:Work
         rdf:about="">
        <dc:format>image/svg+xml</dc:format>
        <dc:type
           rdf:resource="http://purl.org/dc/dcmitype/StillImage" />
        <dc:title />
      </cc:Work>
    </rdf:RDF>
  </metadata>
  <sodipodi:namedview
     pagecolor="#ffffff"
     bordercolor="#666666"
     borderopacity="1"
     objecttolerance="10"
     gridtolerance="10"
     guidetolerance="10"
     inkscape:pageopacity="0"
     inkscape:pageshadow="2"
     inkscape:window-width="1600"
     inkscape:window-height="844"
     id="namedview10"
     showgrid="false"
     inkscape:zoom="3.0341309"
     inkscape:cx="119.07968"
     inkscape:cy="97.069779"
     inkscape:window-x="0"
     inkscape:window-y="27"
     inkscape:window-maximized="1"
     inkscape:current-layer="svg2" />
  <defs
     id="defs5">
    <clipPath
       clipPathUnits="userSpaceOnUse"
       id="clipPath3661">
      <rect
         style="fill:#ffff00;stroke:none;stroke-width:0.87900001;stroke-miterlimit:4;stroke-dasharray:none"
         id="rect3663"
         width="325.0076"
         height="882.42169"
         x="-41.262375"
         y="-89.832672" />
    </clipPath>
  </defs>
  <path
     style="opacity:1;fill:#808080;fill-opacity:1;fill-rule:evenodd;stroke:none;stroke-width:1px;stroke-linecap:butt;stroke-linejoin:miter;stroke-opacity:1"
     d="M 110 45.40625 C 99.285016 48.063878 87.635377 55.05506 78.115234 64.767578 C 78.270604 64.780935 78.412492 64.787069 78.582031 64.808594 C 80.305551 63.281148 82.232873 63.540731 84.220703 64.291016 C 85.0306 63.665535 85.744949 63.42527 86.408203 63.404297 L 86.410156 63.404297 L 86.412109 63.404297 C 87.67853 63.367465 88.756015 64.120169 89.925781 64.482422 C 92.785466 63.568401 93.435698 64.820259 94.839844 65.330078 C 97.956497 64.685483 98.904469 66.089073 100.40039 67.570312 L 102.13867 67.537109 C 103.33013 68.224351 104.35292 69.098563 105.25195 70.054688 C 106.82914 69.861624 108.41359 69.75 110 69.75 C 131.51282 69.75 152.75 87.84819 152.75 110 L 152.75 167.25 L 162.25 157.75 L 162.25 110 C 162.25 94.73333 155.28009 79.907682 145.0625 68.1875 C 135.04379 56.695451 121.9377 48.367147 110 45.40625 z M 65.064453 82.447266 C 60.496957 91.020026 57.75 100.42214 57.75 110 L 57.75 157.75 L 67.25 167.25 L 67.25 163.1543 C 66.990771 162.22476 66.768069 161.26385 66.632812 160.23633 C 65.634602 157.42171 64.514168 154.8785 63.845703 151.33789 C 53.697101 140.12104 60.049644 126.35525 67.25 121.9043 L 67.25 110 C 67.25 104.05833 68.795103 98.415555 71.453125 93.330078 C 71.412915 93.178492 71.373456 93.026782 71.341797 92.873047 C 70.47967 92.301391 67.592208 90.698564 67.894531 87.939453 C 66.278038 86.830814 65.377453 85.406871 65.835938 83.390625 C 65.53617 83.065721 65.288437 82.753747 65.064453 82.447266 z "
     id="path3565" />
  <path
     inkscape:connector-curvature="0"
     style="opacity:1;fill:#808080;fill-opacity:1;fill-rule:evenodd;stroke:none;stroke-width:1px;stroke-linecap:butt;stroke-linejoin:miter;stroke-opacity:1"
     d="M 110,76.25 C 92.3756,76.25 73.75,92.16535 73.75,110 l 0,63.75 9.5,9.5 0,-33.25 c 0,-4.78004 2.84318,-9.30052 7.21875,-11.78125 C 86.09106,133.53982 83.25,127.09532 83.25,119.9375 c 0,-7.63502 3.24474,-14.45187 8.125,-19.1875 4.88027,-4.73565 11.43035,-7.5625 18.625,-7.5625 7.19465,0 13.74473,2.82685 18.625,7.5625 4.88026,4.73563 8.125,11.55247 8.125,19.1875 0,7.15783 -2.84106,13.60232 -7.21875,18.28125 4.37557,2.48036 7.21875,7.00012 7.21875,11.78125 l 0,33.25 9.5,-9.5 0,-63.75 C 146.25,92.15181 127.76142,76.25 110,76.25 Z"
     id="path3563" />
  <path
     inkscape:connector-curvature="0"
     style="opacity:1;fill:#808080;fill-opacity:1;fill-rule:evenodd;stroke:none;stroke-width:1px;stroke-linecap:butt;stroke-linejoin:miter;stroke-opacity:1"
     d="m 110,99.6875 c -5.96179,0 -11.52862,2.64411 -15.0625,6.75 -3.51845,4.08797 -5.1875,8.36846 -5.1875,13.5 0,5.13153 1.61398,9.3479 5.1875,13.5 0.90144,1.04738 1.93071,1.9807 3.0625,2.8125 l 0,6.5 c -4.6715,0 -8.25,4.41503 -8.25,7.25 l 0,39.75 20.25,20.25 20.25,-20.25 0,-39.75 c 0,-2.83333 -3.58333,-7.25 -8.25,-7.25 l 0,-6.5 c 0.007,-0.005 0.0242,0.005 0.0312,0 1.13061,-0.83145 2.15278,-1.78387 3.03125,-2.8125 3.47382,-4.06757 5.1875,-8.36847 5.1875,-13.5 0,-5.13153 -1.56483,-9.30089 -5.1875,-13.5 -3.63606,-4.21461 -9.10071,-6.75 -15.0625,-6.75 z"
     id="path2410" />
  <path
     d="m 86.411186,63.404828 c -0.664317,0.02018 -1.37977,0.260372 -2.191201,0.887037 -1.98783,-0.750285 -3.915089,-1.010925 -5.638609,0.516521 -2.661453,-0.337892 -3.526333,0.359342 -4.181601,1.17335 -0.584235,-0.01186 -4.371941,-0.587825 -6.10886,1.948157 -4.364966,-0.505543 -5.744516,2.512987 -4.181417,5.327791 -0.891477,1.350811 -1.815203,2.685274 0.269596,5.26042 -0.737498,1.43426 -0.280352,2.990146 1.456915,4.873089 -0.458485,2.016246 0.442738,3.438739 2.059231,4.547378 -0.302323,2.759111 2.585096,4.363233 3.447223,4.934889 0.331067,1.607661 1.021062,3.124706 4.319079,3.963506 0.543891,2.395853 2.525994,2.809593 4.44536,3.312444 -6.343802,3.60923 -11.783994,8.358 -11.747101,20.00975 l -0.929214,1.62249 c -7.274026,4.32963 -13.818446,18.24556 -3.584702,29.55651 0.668465,3.54061 1.789524,6.08378 2.787734,8.8984 1.492947,11.34168 11.23647,16.6524 13.806332,17.28047 3.765864,2.80761 7.776581,5.47169 13.204109,7.33774 5.116413,5.16485 10.65939,7.13331 16.23266,7.13007 0.0817,-5e-5 0.16492,9e-4 0.24665,0 5.57327,0.003 11.11606,-1.96504 16.23266,-7.13007 5.42734,-1.86605 9.43825,-4.53013 13.20411,-7.33774 2.56986,-0.62805 12.31335,-5.93879 13.80633,-17.28047 0.99812,-2.81462 2.11925,-5.35779 2.78773,-8.8984 10.23357,-11.31185 3.68933,-25.22867 -3.58488,-29.55831 l -0.93059,-1.62227 c 0.0368,-11.65086 -5.4033,-16.39962 -11.7471,-20.00975 1.91936,-0.502744 3.9015,-0.916485 4.44536,-3.312445 3.298,-0.838944 3.98814,-2.35597 4.31908,-3.963506 0.86227,-0.57153 3.74952,-2.175778 3.44722,-4.934889 1.61646,-1.108747 2.51773,-2.531311 2.05923,-4.547378 1.73727,-1.882943 2.19451,-3.438739 1.45692,-4.873089 2.08511,-2.574068 1.16002,-3.908531 0.26981,-5.259342 1.562,-2.814804 0.18355,-5.833334 -4.18307,-5.327791 -1.73637,-2.535982 -5.52297,-1.960014 -6.10849,-1.948157 -0.65527,-0.814008 -1.51978,-1.511242 -4.18123,-1.17335 -1.72352,-1.527446 -3.65078,-1.266806 -5.63861,-0.516503 -2.36044,-1.823119 -3.92243,-0.361695 -5.70652,0.190864 -2.85785,-0.914021 -3.51129,0.337927 -4.91543,0.847746 -3.11665,-0.644613 -4.06376,0.758855 -5.55785,2.240094 l -1.73798,-0.03368 c -4.70086,2.711503 -7.03615,8.23278 -7.86395,11.071119 -0.82819,-2.838878 -3.15814,-8.360154 -7.85808,-11.071119 l -1.73798,0.03368 c -1.495923,-1.481239 -2.443033,-2.884689 -5.559686,-2.240094 -1.404146,-0.509819 -2.055743,-1.761767 -4.915428,-0.847746 -1.170984,-0.36263 -2.247918,-1.116436 -3.516054,-1.077919 z"
     id="path3342"
     inkscape:connector-curvature="0"
     style="fill:#000000" />
  <path
     d="m 77.05205,75.333754 c 12.471751,6.293426 19.722282,11.384434 23.69427,15.72036 -2.034083,7.979829 -12.645754,8.343985 -16.525968,8.120138 0.794471,-0.361947 1.457356,-0.795468 1.692408,-1.461604 -0.973633,-0.677256 -4.425904,-0.07136 -6.836079,-1.396658 0.925837,-0.187738 1.358901,-0.370624 1.791966,-1.039365 -2.277103,-0.710833 -4.729861,-1.323396 -6.172368,-2.50095 0.778484,0.0094 1.505318,0.170455 2.521956,-0.519682 -2.039591,-1.075799 -4.215925,-1.928396 -5.906773,-3.57276 1.054523,-0.02527 2.191385,-0.0102 2.521956,-0.389758 -1.866688,-1.131939 -3.441717,-2.390822 -4.745462,-3.767683 1.475729,0.174357 2.098876,0.02421 2.455695,-0.227369 -1.411084,-1.414624 -3.197047,-2.609101 -4.048529,-4.352275 1.095711,0.369637 2.098143,0.511131 2.820773,-0.03248 -0.479502,-1.058785 -2.533886,-1.683277 -3.716673,-4.15753 1.153492,0.109477 2.376953,0.246322 2.621623,0 -0.535411,-2.134997 -1.454071,-3.335259 -2.35511,-4.578817 2.468726,-0.03593 6.209077,0.0093 6.039662,-0.194924 L 71.378916,69.45583 c 2.41146,-0.635469 4.878902,0.102072 6.670151,0.649608 0.804291,-0.621187 -0.01424,-1.406684 -0.99553,-2.208655 2.049318,0.267791 3.901139,0.728924 5.574917,1.364178 0.894322,-0.790348 -0.580729,-1.580714 -1.2942,-2.371061 3.166027,0.587932 4.5074,1.413995 5.840512,2.241171 0.96719,-0.907391 0.05537,-1.678552 -0.597322,-2.468432 2.387232,0.865388 3.616823,1.982651 4.91139,3.085541 0.438901,-0.579759 1.115039,-1.004692 0.29867,-2.403578 1.694923,0.956239 2.971466,2.083077 3.915823,3.345498 1.048686,-0.653559 0.62478,-1.547351 0.630507,-2.37106 1.761441,1.402461 2.879325,2.894929 4.247676,4.352274 0.27564,-0.196432 0.51699,-0.86264 0.73007,-1.916359 4.20234,3.990454 10.14031,14.041323 1.52648,18.026386 C 95.507132,82.86357 86.75187,78.562137 77.049499,75.335389 Z"
     id="path3344"
     inkscape:connector-curvature="0"
     style="fill:#75a928" />
  <path
     d="m 143.22678,75.333754 c -12.47029,6.293965 -19.72045,11.383536 -23.69244,15.72036 2.03409,7.979829 12.64576,8.343985 16.52597,8.120138 -0.79447,-0.361947 -1.45736,-0.795468 -1.69241,-1.461604 0.97363,-0.677256 4.42591,-0.07136 6.83608,-1.396658 -0.92584,-0.187738 -1.3589,-0.370624 -1.79196,-1.039365 2.2771,-0.710833 4.72986,-1.323396 6.17236,-2.50095 -0.77848,0.0094 -1.50531,0.170455 -2.52195,-0.519682 2.03959,-1.075799 4.21592,-1.928396 5.90677,-3.57276 -1.05452,-0.02527 -2.19138,-0.0102 -2.52196,-0.389758 1.86669,-1.131939 3.44172,-2.390822 4.74547,-3.767683 -1.47573,0.174357 -2.09888,0.02421 -2.4557,-0.227369 1.41109,-1.414624 3.19705,-2.609101 4.04853,-4.352275 -1.09571,0.369637 -2.09814,0.511131 -2.82077,-0.03248 0.4795,-1.058785 2.53388,-1.683277 3.71667,-4.15753 -1.15349,0.109477 -2.37695,0.246322 -2.62162,0 0.53638,-2.135895 1.45508,-3.336157 2.35603,-4.579716 -2.46873,-0.03588 -6.20908,0.0094 -6.03967,-0.194887 l 1.52648,-1.526566 c -2.41146,-0.635469 -4.8789,0.102072 -6.67015,0.649607 -0.80429,-0.621186 0.0143,-1.406683 0.99553,-2.208654 -2.04932,0.267791 -3.90114,0.728924 -5.57491,1.364177 -0.89433,-0.790347 0.58072,-1.580713 1.2942,-2.371061 -3.16603,0.587933 -4.5074,1.413996 -5.84052,2.241172 -0.96719,-0.907392 -0.0554,-1.678552 0.59733,-2.468433 -2.38724,0.865389 -3.61683,1.982651 -4.91139,3.085541 -0.43891,-0.579758 -1.11504,-1.004691 -0.29867,-2.403578 -1.69493,0.956239 -2.97147,2.083077 -3.91583,3.345499 -1.04868,-0.65356 -0.62478,-1.547351 -0.6305,-2.371061 -1.76145,1.402462 -2.87933,2.894929 -4.24768,4.352275 -0.27564,-0.196433 -0.51699,-0.86264 -0.73007,-1.916359 -4.20234,3.990453 -10.14032,14.041322 -1.52648,18.026386 7.32707,-5.919029 16.08178,-10.220102 25.78489,-13.44685 z"
     id="path3346"
     inkscape:connector-curvature="0"
     style="fill:#75a928" />
  <path
     d="m 125.24291,156.59186 a 14.938997,13.483213 0 1 1 -29.877581,0 14.938997,13.483213 0 1 1 29.877581,0 z"
     id="path3348"
     inkscape:connector-curvature="0"
     style="fill:#bc1142" />
  <path
     d="M 101.66007,118.07513 A 13.300681,15.587634 37.6688 1 1 84.228866,143.89348 13.300681,15.587634 37.6688 0 1 101.66007,118.07513 Z"
     id="path3350"
     inkscape:connector-curvature="0"
     style="fill:#bc1142" />
  <path
     d="m 118.36734,117.35652 a 15.587634,13.300681 52.3312 1 0 17.4312,25.81835 15.587634,13.300681 52.3312 0 0 -17.4312,-25.81835 z"
     id="path3352"
     inkscape:connector-curvature="0"
     style="fill:#bc1142" />
  <path
     d="m 70.723299,124.5648 c 6.683,-1.75342 2.256178,27.06113 -3.181445,24.6969 -5.981294,-4.70871 -7.907819,-18.49887 3.181445,-24.6969 z"
     id="path3354"
     inkscape:connector-curvature="0"
     style="fill:#bc1142" />
  <path
     d="m 147.95498,124.20549 c -6.68373,-1.75286 -2.25617,27.06293 3.18145,24.6987 5.98129,-4.70925 7.90782,-18.50067 -3.18145,-24.6987 z"
     id="path3356"
     inkscape:connector-curvature="0"
     style="fill:#bc1142" />
  <path
     d="m 125.2482,102.74773 c 11.53327,-1.90612 21.1301,4.80069 20.74282,17.04153 -0.37938,4.69272 -24.99196,-16.34286 -20.74282,-17.04153 z"
     id="path3358"
     inkscape:connector-curvature="0"
     style="fill:#bc1142" />
  <path
     d="m 93.382357,102.38842 c -11.534186,-1.90611 -21.130099,4.80213 -20.742812,17.04189 0.379395,4.69254 24.991958,-16.34304 20.742812,-17.04189 z"
     id="path3360"
     inkscape:connector-curvature="0"
     style="fill:#bc1142" />
  <path
     d="m 109.94944,99.533737 c -6.88362,-0.175248 -13.489893,5.000463 -13.505862,8.002463 -0.0192,3.64768 5.442392,7.38248 13.552672,7.47716 8.28225,0.0581 13.56716,-2.98942 13.59378,-6.75387 0.0302,-4.26497 -7.53265,-8.791685 -13.64077,-8.725932 z"
     id="path3362"
     inkscape:connector-curvature="0"
     style="fill:#bc1142" />
  <path
     d="m 110.36977,174.33408 c 6.00148,-0.25639 14.05449,1.8921 14.07027,4.74212 0.0996,2.76755 -7.30339,9.02056 -14.46839,8.89965 -7.42031,0.3133 -14.696542,-5.94939 -14.60128,-8.12014 -0.111058,-3.18273 9.03536,-5.66769 14.9994,-5.52163 z"
     id="path3364"
     inkscape:connector-curvature="0"
     style="fill:#bc1142" />
  <path
     d="m 87.673074,157.85498 c 3.926366,4.63 5.716245,12.76428 2.439579,15.16216 -3.099905,1.83048 -10.627956,1.07663 -15.978703,-6.44694 -3.6086,-6.31322 -3.143589,-12.73754 -0.609878,-14.6248 3.788904,-2.25904 9.643117,0.79224 14.149187,5.90958 z"
     id="path3366"
     inkscape:connector-curvature="0"
     style="fill:#bc1142" />
  <path
     d="m 131.68158,155.84598 c -4.62304,5.30013 -7.1973,14.9669 -3.82478,18.08028 3.22457,2.41885 11.8809,2.08075 18.27518,-6.60332 4.64304,-5.83244 3.08729,-15.57269 0.43516,-18.15933 -3.93969,-2.9826 -9.59536,0.83447 -14.8856,6.68094 z"
     id="path3368"
     inkscape:connector-curvature="0"
     style="fill:#bc1142" />
  <path
     style="opacity:1;fill:#ffffff;fill-opacity:1;fill-rule:evenodd;stroke:none;stroke-width:6.5;stroke-linecap:round;stroke-linejoin:round;stroke-miterlimit:4;stroke-dasharray:none;stroke-opacity:1"
     d="M 110 69.75 C 108.41359 69.75 106.82914 69.861624 105.25195 70.054688 C 107.0892 72.008609 108.34709 74.320275 109.15234 76.273438 C 109.43498 76.265334 109.7178 76.25 110 76.25 C 127.76142 76.25 146.25 92.15181 146.25 110 L 146.25 173.75 L 152.75 167.25 L 152.75 110 C 152.75 87.84819 131.51282 69.75 110 69.75 z M 71.453125 93.330078 C 68.795103 98.415555 67.25 104.05833 67.25 110 L 67.25 121.9043 C 67.310407 121.86696 67.36917 121.81727 67.429688 121.78125 L 68.359375 120.1582 C 68.334364 112.25915 70.831293 107.53721 74.416016 104.1875 C 74.863761 102.19382 75.527164 100.24658 76.384766 98.367188 C 76.061862 97.970384 75.8077 97.479219 75.662109 96.837891 C 72.679471 96.079302 71.833408 94.76368 71.453125 93.330078 z M 67.25 163.1543 L 67.25 167.25 L 73.75 173.75 L 73.75 173.45117 C 71.125711 171.10706 68.521332 167.71298 67.25 163.1543 z "
     id="path3544" />
  <path
     style="opacity:1;fill:#ffffff;fill-opacity:1;fill-rule:evenodd;stroke:none;stroke-width:6.5;stroke-linecap:round;stroke-linejoin:round;stroke-miterlimit:4;stroke-dasharray:none;stroke-opacity:1"
     d="M 109.75 38.75 C 109.59166 38.7697 109.43499 38.80104 109.28125 38.84375 C 95.40653 42.045608 81.09491 51.282682 70.0625 63.9375 C 68.945546 65.218712 67.871754 66.545674 66.826172 67.896484 C 67.270661 67.859746 67.757365 67.867881 68.291016 67.929688 C 70.027935 65.393704 73.816156 65.970562 74.400391 65.982422 C 75.013917 65.220268 75.831596 64.571253 78.115234 64.767578 C 87.635377 55.05506 99.285016 48.063878 110 45.40625 C 121.9377 48.367147 135.04379 56.695451 145.0625 68.1875 C 155.28009 79.907682 162.25 94.73333 162.25 110 L 162.25 157.75 L 168.75 151.25 L 168.75 110 C 168.75 92.76667 160.96991 76.592318 149.9375 63.9375 C 138.90509 51.282682 124.59347 42.045608 110.71875 38.84375 C 110.40237 38.764056 110.07579 38.732452 109.75 38.75 z M 63.675781 72.240234 C 56.151201 83.345921 51.25 96.336668 51.25 110 L 51.25 151.25 L 57.75 157.75 L 57.75 110 C 57.75 100.42305 60.50136 91.023285 65.068359 82.451172 C 63.991428 80.979582 63.768047 79.705556 64.378906 78.517578 C 62.294107 75.942432 63.217898 74.608623 64.109375 73.257812 C 63.921499 72.919488 63.778554 72.577981 63.675781 72.240234 z "
     id="path3546" />
  <path
     style="opacity:1;fill:#af0000;fill-opacity:1;fill-rule:evenodd;stroke:none;stroke-width:1px;stroke-linecap:butt;stroke-linejoin:miter;stroke-opacity:1"
     d="M 110 10 L 10 110 L 51.25 151.25 L 51.25 110 C 51.25 96.336668 56.151201 83.345921 63.675781 72.240234 C 63.028038 70.11153 64.071975 68.124126 66.826172 67.896484 C 67.871754 66.545674 68.945546 65.218712 70.0625 63.9375 C 81.09491 51.282682 95.40653 42.045608 109.28125 38.84375 C 109.43499 38.80104 109.59166 38.7697 109.75 38.75 C 110.07579 38.73245 110.40237 38.76406 110.71875 38.84375 C 124.59347 42.045608 138.90509 51.282682 149.9375 63.9375 C 160.96991 76.592318 168.75 92.76667 168.75 110 L 168.75 151.25 L 210 110 L 110 10 z "
     id="path3567" />
</svg>
